<?xml version="1.0" encoding="iso-8859-1"?>
<!-- Generator: Adobe Illustrator 19.0.0, SVG Export Plug-In . SVG Version: 6.00 Build 0)  -->
<svg xmlns="http://www.w3.org/2000/svg" xmlns:xlink="http://www.w3.org/1999/xlink" version="1.1" id="Layer_1" x="0px" y="0px" viewBox="0 0 432.829 432.829" style="enable-background:new 0 0 432.829 432.829;" xml:space="preserve" width="512" height="512">
<g>
	<path style="fill:#9AD14B;" d="M216.108,111.514c-28.72,0-54.72-11.64-73.55-30.47c-18.82-18.82-30.46-44.82-30.46-73.54   C169.538,7.503,216.108,54.063,216.108,111.514z"/>
	<path style="fill:#564C89;" d="M216.108,170.674c0,9.85-3.09,18.96-8.36,26.46v0.01c-21.32,4.05-37.44,22.78-37.44,45.28   c0-22.75-16.48-41.65-38.15-45.42c-5.21-7.46-8.26-16.55-8.26-26.33c0-25.46,20.64-46.1,46.1-46.1   C195.468,124.574,216.108,145.214,216.108,170.674z"/>
	<path style="fill:#564C89;" d="M308.308,170.674c0,9.85-3.09,18.98-8.36,26.47c-21.32,4.05-37.43,22.78-37.43,45.28   c0-22.75-16.48-41.65-38.15-45.42c-5.2-7.46-8.26-16.55-8.26-26.33c0-25.46,20.64-46.1,46.09-46.1   C287.668,124.574,308.308,145.214,308.308,170.674z"/>
	<path style="fill:#564C89;" d="M262.518,242.424c0,24.12-18.52,43.92-42.12,45.94c-1.31,0.11-2.64,0.17-3.98,0.17   c-1.56,0-3.1-0.08-4.62-0.23c-23.29-2.32-41.49-21.98-41.49-45.88c0-22.5,16.12-41.23,37.44-45.28c2.81-0.54,5.71-0.82,8.67-0.82   c2.71,0,5.37,0.23,7.95,0.68C246.038,200.774,262.518,219.674,262.518,242.424z"/>
	<path style="fill:#564C89;" d="M308.618,196.324c25.46,0,46.1,20.64,46.1,46.1s-20.64,46.11-46.1,46.11c-1.56,0-3.1-0.08-4.62-0.23   c-23.29-2.32-41.48-21.98-41.48-45.88c0-22.5,16.11-41.23,37.43-45.28C302.758,196.604,305.658,196.324,308.618,196.324z"/>
	<path style="fill:#564C89;" d="M170.308,242.424c0,24.12-18.53,43.93-42.13,45.94c-1.31,0.11-2.63,0.17-3.97,0.17   c-25.46,0-46.1-20.65-46.1-46.11s20.64-46.1,46.1-46.1c2.71,0,5.37,0.23,7.95,0.68   C153.828,200.774,170.308,219.674,170.308,242.424z"/>
	<path style="fill:#564C89;" d="M170.308,242.424c0,23.9,18.2,43.56,41.49,45.88v0.01c2.76,5.91,4.31,12.52,4.31,19.49   c0,9.69-2.99,18.68-8.1,26.09c-6.79,9.89-17.34,16.99-29.59,19.25c-2.72,0.5-5.55,0.77-8.42,0.77c-25.46,0-46.1-20.65-46.1-46.11   c0-6.95,1.53-13.54,4.28-19.44C151.778,286.354,170.308,266.544,170.308,242.424z"/>
	<path style="fill:#564C89;" d="M262.518,242.424c0,23.9,18.19,43.56,41.48,45.88v0.01c2.76,5.91,4.31,12.52,4.31,19.49   c0,25.46-20.64,46.11-46.11,46.11c-2.62,0-5.19-0.22-7.69-0.64v-0.01c-12.6-2.11-23.47-9.34-30.39-19.48   c-5.06-7.4-8.01-16.35-8.01-25.98c0-6.95,1.53-13.54,4.29-19.44C243.998,286.344,262.518,266.544,262.518,242.424z"/>
	<path style="fill:#564C89;" d="M254.508,353.274c5.05,7.39,8.01,16.33,8.01,25.96c0,25.47-20.64,46.1-46.1,46.1   s-46.1-20.63-46.1-46.1c0-9.69,2.98-18.68,8.1-26.09c12.25-2.26,22.8-9.36,29.59-19.25c5.11-7.41,8.1-16.4,8.1-26.09   c0,9.63,2.95,18.58,8.01,25.98c6.92,10.14,17.79,17.37,30.39,19.48V353.274z"/>
	<path style="fill:#423D72;" d="M255.844,169.473c0,17.45,10.235,32.514,25.034,39.492c-4.573,2.168-9.582,3.56-14.865,4.005   c-1.24,0.104-2.49,0.161-3.759,0.161c-24.106,0-43.649-19.552-43.649-43.658c0-24.107,19.543-43.649,43.649-43.649   c2.566,0,5.084,0.218,7.527,0.644c3.901,0.672,7.622,1.875,11.097,3.513C266.079,136.968,255.844,152.023,255.844,169.473z"/>
	<path style="fill:#423D72;" d="M300.844,242.973c0,17.45,10.235,32.514,25.034,39.492c-4.573,2.168-9.582,3.56-14.865,4.005   c-1.24,0.104-2.49,0.161-3.759,0.161c-24.106,0-43.649-19.552-43.649-43.658c0-24.107,19.543-43.649,43.649-43.649   c2.566,0,5.084,0.218,7.527,0.644c3.901,0.672,7.622,1.875,11.097,3.513C311.079,210.468,300.844,225.523,300.844,242.973z"/>
	<path style="fill:#423D72;" d="M209.844,377.473c0,17.45,10.235,32.514,25.034,39.492c-4.573,2.168-9.582,3.56-14.865,4.005   c-1.24,0.104-2.49,0.161-3.759,0.161c-24.106,0-43.649-19.552-43.649-43.658c0-24.107,25.707-45.289,49.813-45.289   c2.566,0-1.08,1.858,1.363,2.284c3.901,0.672,7.622,1.875,11.097,3.513C220.079,344.968,209.844,360.023,209.844,377.473z"/>
	<path style="fill:#423D72;" d="M255.344,310.973c0,17.45,10.235,32.514,25.034,39.492c-4.573,2.168-9.582,3.56-14.865,4.005   c-1.24,0.104-2.49,0.161-3.759,0.161c-24.106,0-43.649-19.552-43.649-43.658c0-24.107,27.313-36.289,51.313-44.289   c2.434-0.811-2.58,0.858-0.137,1.284c3.901,0.672,7.622,1.875,11.097,3.513C265.579,278.468,255.344,293.523,255.344,310.973z"/>
	<g>
		<path style="fill:#423D72;" d="M163.228,170.674c0,9.78,14.48,35.05,19.69,42.51c-2.58-0.45-10.79,8-13.5,8    c-7.03,0-19.58-23.29-25.54-20.47c-3.67-1.73-7.6-3-11.72-3.71c-5.21-7.46-8.26-16.55-8.26-26.33c0-25.46,20.64-46.1,46.1-46.1    c7.04,0,13.71,1.58,19.67,4.4C174.038,136.344,163.228,152.244,163.228,170.674z"/>
		<path style="fill:#423D72;" d="M117.438,242.424c0,18.43,10.81,34.34,26.44,41.71c-4.83,2.29-10.12,3.76-15.7,4.23    c-1.31,0.11-2.63,0.17-3.97,0.17c-25.46,0-46.1-20.65-46.1-46.11c0-25.46,20.64-46.1,46.1-46.1c2.71,0,5.37,0.23,7.95,0.68    c4.12,0.71,8.05,1.98,11.72,3.71C128.248,208.094,117.438,223.994,117.438,242.424z"/>
		<path style="fill:#423D72;" d="M189.668,349.514c-3.53,1.67-7.3,2.9-11.25,3.63c-2.72,0.5-5.55,0.77-8.42,0.77    c-25.46,0-46.1-20.65-46.1-46.11c0-6.95,1.53-13.54,4.28-19.44c5.58-0.47,10.87-1.94,15.7-4.23    c5.96,2.83,10.436-10.962,16.54-14.45c17.5-10,14.5-6,7.09,18.68c-2.75,5.9-4.28,12.49-4.28,19.44    C163.228,326.233,174.038,342.134,189.668,349.514z"/>
	</g>
	<path style="fill:#90BC42;" d="M216.108,111.514L112.098,7.503C169.538,7.503,216.108,54.063,216.108,111.514z"/>
	<path style="fill:#423D72;" d="M209.938,242.924c0,18.43,10.81,34.34,26.44,41.71c-4.83,2.29-10.12,3.76-15.7,4.23   c-1.31,0.11-2.63,0.17-3.97,0.17c-25.46,0-46.1-20.65-46.1-46.11c0-25.46,20.64-46.1,46.1-46.1c2.71,0,5.37,0.23,7.95,0.68   c4.12,0.71,8.05,1.98,11.72,3.71C220.748,208.594,209.938,224.494,209.938,242.924z"/>
	<path style="fill:#FFFFFF;" d="M237.649,263.231c-1.366,0-2.749-0.373-3.99-1.155c-3.505-2.208-4.557-6.838-2.349-10.343   c1.771-2.812,2.707-6.03,2.707-9.309c0-7.358-4.404-13.807-11.22-16.427c-3.866-1.487-5.796-5.826-4.309-9.692   c1.484-3.866,5.825-5.797,9.691-4.309c12.658,4.867,20.837,16.811,20.837,30.428c0,6.112-1.734,12.096-5.016,17.304   C242.576,261.991,240.139,263.231,237.649,263.231z"/>
	<path style="fill:#FFFFFF;" d="M289.03,186.363c-0.694,0-1.4-0.097-2.102-0.301c-3.977-1.159-6.261-5.322-5.102-9.299   c0.458-1.573,0.69-3.201,0.69-4.839c0-7.358-4.404-13.807-11.22-16.427c-3.866-1.487-5.796-5.826-4.309-9.692   c1.485-3.865,5.825-5.796,9.691-4.309c12.658,4.867,20.837,16.811,20.837,30.428c0,3.059-0.434,6.098-1.29,9.035   C295.273,184.235,292.279,186.363,289.03,186.363z"/>
	<path style="fill:#FFFFFF;" d="M194.508,186.441c-0.703,0-1.417-0.1-2.125-0.308c-3.973-1.172-6.244-5.342-5.072-9.315   c0.469-1.59,0.707-3.237,0.707-4.894c0-7.358-4.404-13.807-11.22-16.427c-3.866-1.487-5.795-5.826-4.309-9.692   c1.487-3.867,5.826-5.794,9.692-4.309c12.658,4.868,20.836,16.811,20.836,30.428c0,3.094-0.444,6.167-1.319,9.137   C200.735,184.325,197.747,186.441,194.508,186.441z"/>
	<path style="fill:#FFFFFF;" d="M331.649,263.231c-1.366,0-2.749-0.373-3.99-1.155c-3.505-2.208-4.557-6.838-2.349-10.343   c1.771-2.812,2.707-6.03,2.707-9.309c0-7.358-4.404-13.807-11.22-16.427c-3.866-1.487-5.796-5.826-4.309-9.692   c1.485-3.866,5.824-5.797,9.691-4.309c12.658,4.867,20.837,16.811,20.837,30.428c0,6.112-1.734,12.096-5.016,17.304   C336.576,261.991,334.139,263.231,331.649,263.231z"/>
	<path style="fill:#FFFFFF;" d="M284.149,328.731c-1.366,0-2.749-0.373-3.99-1.155c-3.505-2.208-4.557-6.838-2.349-10.343   c1.771-2.812,2.707-6.03,2.707-9.309c0-4.142,3.357-7.5,7.5-7.5s7.5,3.358,7.5,7.5c0,6.112-1.734,12.096-5.016,17.304   C289.076,327.491,286.639,328.731,284.149,328.731z"/>
	<path style="fill:#FFFFFF;" d="M239.149,399.231c-1.366,0-2.749-0.373-3.99-1.155c-3.505-2.208-4.557-6.838-2.349-10.343   c1.771-2.812,2.707-6.03,2.707-9.309c0-4.142,3.357-7.5,7.5-7.5s7.5,3.358,7.5,7.5c0,6.112-1.734,12.096-5.016,17.304   C244.076,397.991,241.639,399.231,239.149,399.231z"/>
	<path style="fill:#FFFFFF;" d="M189.148,328.731c-1.366,0-2.749-0.373-3.991-1.155c-3.504-2.208-4.556-6.839-2.348-10.344   c1.771-2.811,2.708-6.03,2.708-9.309c0-4.142,3.358-7.5,7.5-7.5s7.5,3.358,7.5,7.5c0,6.112-1.735,12.096-5.016,17.305   C194.075,327.491,191.639,328.731,189.148,328.731z"/>
	<path style="fill:#FFFFFF;" d="M148.148,263.231c-1.366,0-2.749-0.373-3.991-1.155c-3.504-2.208-4.556-6.839-2.347-10.344   c1.771-2.811,2.707-6.03,2.707-9.309c0-7.358-4.404-13.807-11.22-16.427c-3.866-1.487-5.795-5.826-4.309-9.692   c1.487-3.866,5.826-5.795,9.692-4.309c12.658,4.868,20.836,16.811,20.836,30.428c0,6.112-1.734,12.096-5.016,17.305   C153.075,261.991,150.639,263.231,148.148,263.231z"/>
	<path style="fill:#333333;" d="M362.221,242.427c0-28.218-21.922-51.396-49.628-53.439c2.117-5.82,3.213-11.996,3.213-18.317   c0-29.552-24.047-53.594-53.605-53.594c-15.148,0-28.838,6.327-38.595,16.465V43.215c0-4.142-3.357-7.5-7.5-7.5   c-4.142,0-7.5,3.358-7.5,7.5v12.487C189.29,22.427,153.264,0,112.096,0c-4.142,0-7.5,3.358-7.5,7.5   c0,29.785,11.599,57.788,32.661,78.849c19.284,19.284,44.387,30.628,71.349,32.407v14.789   c-9.759-10.14-23.453-16.469-38.606-16.469c-29.559,0-53.606,24.042-53.606,53.594c0,6.338,1.104,12.53,3.233,18.363   c-27.417,2.334-49.019,25.382-49.019,53.393c0,27.382,20.643,50.019,47.181,53.204c-0.919,3.957-1.395,8.022-1.395,12.173   c0,28.182,21.865,51.337,49.519,53.435c-2.042,5.725-3.099,11.792-3.099,17.997c0,29.552,24.047,53.594,53.606,53.594   c29.552,0,53.595-24.042,53.595-53.594c0-6.218-1.064-12.302-3.117-18.043c27.366-2.388,48.909-25.413,48.909-53.388   c0-4.122-0.468-8.162-1.376-12.095C341.263,292.802,362.221,270.019,362.221,242.427z M119.909,15.31   c22.834,1.817,44.055,11.583,60.43,27.958c16.375,16.375,26.141,37.596,27.957,60.43C161.292,99.917,123.689,62.313,119.909,15.31z    M262.201,132.076c21.287,0,38.605,17.313,38.605,38.594c0,7.05-1.89,13.846-5.479,19.824   c-13.909,3.562-25.649,12.583-32.811,24.63c-7.284-12.253-19.309-21.364-33.531-24.796c-3.525-5.934-5.38-12.672-5.38-19.657   C223.606,149.39,240.92,132.076,262.201,132.076z M216.414,281.029c-21.285,0-38.602-17.317-38.602-38.602   c0-21.286,17.317-38.603,38.602-38.603c21.286,0,38.602,17.317,38.602,38.603C255.016,263.712,237.7,281.029,216.414,281.029z    M170,132.076c21.288,0,38.606,17.313,38.606,38.594c0,7.047-1.893,13.844-5.487,19.825c-13.907,3.563-25.645,12.583-32.807,24.629   c-7.286-12.256-19.315-21.368-33.54-24.799c-3.524-5.933-5.378-12.67-5.378-19.655C131.394,149.39,148.713,132.076,170,132.076z    M85.608,242.427c0-21.286,17.317-38.603,38.603-38.603c21.285,0,38.602,17.317,38.602,38.603   c0,21.285-17.317,38.602-38.602,38.602C102.925,281.029,85.608,263.712,85.608,242.427z M131.394,307.803   c0-4.352,0.709-8.572,2.101-12.596c15.648-2.745,28.978-12.291,36.817-25.478c7.727,12.998,20.788,22.46,36.147,25.357   c1.422,4.064,2.147,8.324,2.147,12.716c0,7.858-2.343,15.408-6.785,21.849c-5.768,8.406-14.794,14.279-24.761,16.114   c-2.326,0.427-4.701,0.644-7.06,0.644C148.713,346.41,131.394,329.091,131.394,307.803z M216.42,417.829   c-21.288,0-38.606-17.313-38.606-38.594c0-6.906,1.813-13.573,5.26-19.449c12.54-3.161,23.748-10.91,31.105-21.632   c0.678-0.983,1.315-1.989,1.923-3.008c0.576,0.969,1.178,1.926,1.818,2.862c7.541,11.046,19.048,18.909,31.945,21.955   c3.377,5.836,5.15,12.441,5.15,19.272C255.014,400.516,237.701,417.829,216.42,417.829z M262.201,346.41   c-2.029,0-4.073-0.16-6.081-0.476c-0.125-0.027-0.251-0.052-0.378-0.073c-10.257-1.713-19.526-7.658-25.438-16.316   c-4.382-6.407-6.698-13.925-6.698-21.742c0-4.353,0.709-8.574,2.102-12.598c15.644-2.748,28.97-12.292,36.808-25.476   c7.727,12.997,20.786,22.458,36.143,25.357c1.421,4.064,2.147,8.325,2.147,12.717C300.806,329.091,283.488,346.41,262.201,346.41z    M308.619,281.029c-21.285,0-38.603-17.317-38.603-38.602c0-21.286,17.317-38.603,38.603-38.603s38.603,17.317,38.603,38.603   C347.221,263.712,329.904,281.029,308.619,281.029z"/>
</g>















</svg>
